<svg xmlns="http://www.w3.org/2000/svg" viewBox="0 0 55.33 89.91">
  <defs>
    <linearGradient id="gradCelesteBlanco" x1="0%" y1="0%" x2="0%" y2="100%">
      <stop offset="0%" style="stop-color:#00c3ff; stop-opacity:1" />
      <stop offset="100%" style="stop-color:#ffffff; stop-opacity:1" />
    </linearGradient>
  </defs>
  <g stroke-linecap="round" fill="url(#gradCelesteBlanco)">
    <path d="M38.63 10c1.06 0 2.12 0 4.47 0 1.49 0 2.23.74 2.23 2.23v43.19c0 1.49-.74 2.24-2.23 2.24-1.26 0-2.52 0-4.47 0-1.49 0-2.23-.75-2.23-2.24V12.23c0-1.49.74-2.23 2.23-2.23z"/>
    <path d="M25.41 22.26c1.72 0 3.43 0 4.47 0 1.49 0 2.23.74 2.23 2.23v43.19c0 1.49-.74 2.24-2.23 2.24-1.25 0-2.5 0-4.47 0-1.49 0-2.23-.75-2.23-2.24V24.49c0-1.49.74-2.23 2.23-2.23z"/>
    <path d="M12.23 10.29c1.23 0 2.45 0 4.47 0 1.49 0 2.23.74 2.23 2.23v43.19c0 1.49-.74 2.24-2.23 2.24-1.57 0-3.15 0-4.47 0-1.49 0-2.23-.75-2.23-2.24V12.52c0-1.49.74-2.23 2.23-2.23z"/>
  </g>
</svg>
